<svg id="Layer_1" data-name="Layer 1" xmlns="http://www.w3.org/2000/svg" xmlns:xlink="http://www.w3.org/1999/xlink" viewBox="0 0 842.85189 595.81583"><defs><style>.cls-1{fill:url(#linear-gradient);}.cls-2{fill:#c6c275;opacity:0.65;}.cls-3,.cls-4{fill:#fff;}.cls-3{opacity:0.46;}.cls-4{opacity:0.55;}.cls-5{stroke:#000;stroke-miterlimit:10;}</style><linearGradient id="linear-gradient" x1="123.305" y1="297.64" x2="718.585" y2="297.64" gradientTransform="translate(123.73377 718.585) rotate(-90)" gradientUnits="userSpaceOnUse"><stop offset="0" stop-color="#fff"/><stop offset="1" stop-color="#c6c275"/></linearGradient></defs><title>background</title><rect class="cls-1" x="0.42877" width="841.89" height="595.28"/><path class="cls-2" d="M1.53624,51.6481c4.755-2.9975,49.643-30.22516,100.75682-10.07568,43.06754,16.97754,59.3611,55.2933,62.13336,62.13333C212.91272,68.17191,272.08,60.9996,317.24094,85.23367c36.92261,19.81326,74.12662,65.79468,62.13336,100.75681-12.09421,35.25644-74.27945,59.4881-147.77667,36.94418A229.25431,229.25431,0,0,1-.143,259.87882Z" transform="translate(0.42877)"/><path class="cls-3" d="M700.11682,49.96878c-55.25909-26.9314-113.2583-3.04181-127.62531,3.35858-7.106-5.43024-37.62909-27.4859-80.60544-23.50995-34.84085,3.22327-57.752,21.69452-65.49194,28.54779-5.86945-4.23859-33.59634-23.36328-63.81265-15.11353-40.75192,11.12628-60.21674,64.99646-50.37839,102.4361,13.61346,51.80579,83.179,71.56784,130.98386,67.1712,73.127-6.72552,111.607-71.47836,115.8703-78.92618,16.06049,9.42551,52.53735,27.74445,99.07758,23.50992,34.6123-3.14926,91.06989-20.254,94.03967-50.37839C755.09894,77.39969,704.4812,52.0958,700.11682,49.96878Z" transform="translate(0.42877)"/><path class="cls-4" d="M841.89,121.86078c-23.72327-44.92014-91.30408-55.46921-148.2713-27.886-48.048,23.26456-81.28369,70.13931-78.45471,113.70657-6.05328-5.22446-53.36761-44.7128-114.88153-31.76651-33.06851,6.95966-85.92178,32.37265-92.36041,82.28473-6.65149,51.56219,39.57028,103.38713,78.68127,103.915,3.15909,0.04263,26.23114-.02235,40.54761-18.27171,14.13635-18.01981,9.19147-40.32806,8.39642-43.66129,0.84436,2.31348,8.92853,23.31989,31.90631,30.22705,21.74731,6.53729,39.24622-4.84253,41.54315-6.3931,9.44861,8.4,50.22144,47.73009,110.57568,41.51358,69.17273-7.12482,116.82538-53.34158,122.30933-58.80545Q841.886,214.29222,841.89,121.86078Z" transform="translate(0.42877)"/><path class="cls-5" d="M0.08168,453.25763l15.27838-.3792,0.26615,18.31519,12.50676-.317-0.54943-18.81474,22.61173,0.236,9.09586,14.90172,5.20545,8.56035Q63.976,453.7243,63.45551,431.68868l4.16421-11.45157,3.8172,9.02245,4.16421,0.694v17.35088h5.20526V429.9536l4.85825-12.83966,5.8993,13.53369,12.49264-.347L99.54534,406.3564c0,0.00008-4.02287-.65271-4.51123-2.08211-0.26482-.7751.37759-2.16512,4.16422-4.85825q-0.694-13.36018-1.38807-26.72035c-2.45319.30872-4.50051-.77219-4.85826-2.0582-0.41776-1.50175,1.25562-4.04839,4.51124-4.53514q-0.1735-14.74825-.347-29.49649c-2.83025-.32263-4.67387-2.31174-4.58735-3.83817,0.09631-1.699,2.63559-3.73477,5.97542-3.10217q0.694-13.01317,1.38807-26.02634c-2.83562-.73663-4.20328-3.1492-3.76691-4.51,0.44563-1.38977,3.06141-2.58289,5.849-1.38925q1.9086-12.14561,3.81719-24.29123c-3.37591-.92978-5.45918-3.31821-5.22339-4.99619,0.26532-1.88809,3.621-3.97333,7.99953-2.98523q3.12316-10.41051,6.24631-20.821c-3.15868-.4165-5.067-3.11823-4.7255-5.17789,0.36991-2.2309,3.47538-4.28784,6.8076-3.15054q4.51123-7.6344,9.02246-15.26877c-3.8973-1.90955-5.79648-5.545-5.04034-7.81451,0.88264-2.64926,5.82081-4.7504,10.93964-2.249l6.94035-7.6344c-4.42728-3.15131-5.79744-7.72784-4.34-10.00354,1.45857-2.27737,5.67273-2.13147,7.82784-1.6925a11.07277,11.07277,0,0,1,5.18755,2.67358q2.60264-1.21454,5.20528-2.42911c-2.17712-5.30435-2.28647-10.041-.23779-11.45734,1.53134-1.05869,4.70535-.5643,6.13708-0.34128,2.49806,0.3891,2.82866,1.01474,3.8172.69406,2.58836-.83963,1.78638-5.604,4.1642-7.28738,1.56477-1.10779,4.6622-.99155,11.10457,3.12317a10.88854,10.88854,0,0,1,6.59334-4.16421c1.98387-.34555,5.80339-0.36908,6.89967,1.62875,1.11844,2.03824-1.54044,4.46219-.30635,6.35266,0.89369,1.369,3.12639,1.382,4.16422,1.38806,4.41676,0.0257,5.513-3.03461,9.36948-3.12317,2.61636-.06009,5.93761,1.26065,6.448,3.42184,0.50455,2.13626-1.71953,5.16885-5.754,6.64166,0.72417,1.87662,1.9749,4.15158,4.16422,4.85825,2.2404,0.72314,3.573-1.0332,7.28737-1.38806,0.91524-.08743,6.7411-0.54852,8.26559,2.37039,1.1059,2.11743-.236,5.66071-3.40735,8.38715q2.77613,4.16423,5.55228,8.32843c4.95631-1.1142,9.26624.64413,10.41054,3.47018a6.482,6.482,0,0,1-3.47018,7.98138q3.8172,7.11388,7.6344,14.22772a6.53151,6.53151,0,1,1,3.81718,12.49265l7.9814,19.78a4.96854,4.96854,0,1,1,2.08211,9.71649l3.8172,21.51508c3.25436-.13312,6.09879,1.67963,6.94034,4.16422,1.1167,3.29691-1.3006,7.7551-5.89929,8.67545q1.9086,12.31911,3.8172,24.63824a6.54042,6.54042,0,0,1-1.041,12.83966v22.55614a6.08489,6.08489,0,0,1-.694,12.14561q-0.43762,5.95132-.87521,11.90265-0.42993,5.84727-.85989,11.69455l4.85825-1.38806q-0.08565-4.87012-.17126-9.74023l1.51544-.04208q-0.02106-1.07346-.04208-2.1469h1.17868l0.421-4.96732q0.48409,2.5047.9682,5.00941l1.34708-.0421v1.9785h1.0524q0.04211,3.936.0842,7.87193h2.20456V401.3524h1.53363v-6.61371q0.19171-3.882.38339-7.76393,0.623,3.882,1.24606,7.76393h1.72531q-0.04793-2.30042-.09583-4.60086h1.24606l-0.19171-18.40338H280.975l-0.09586-4.6967h1.24606V362.8203h2.39627v-6.422l-1.24606-1.15021,1.34192-.57512q0.67094-7.85978,1.34192-15.71956,1.294,7.85978,2.588,15.71956l1.34192,0.57512-1.53363,1.05435,0.09586,6.23032h2.10873v3.92989h1.43774v4.40915h1.34192l0.09586,15.14447,2.54587,0.02121,0.18109,7.42473h2.35419l0.54327,24.08507,6.17261,0.22151v-4.4503H309.683v-6.03969h12.39725q0.31787,4.13242.63577,8.26485h9.53638q0.12062,3.71585.24127,7.43172h15.67868q0.75174-2.14776,1.50345-4.29553,0.85909,2.04039,1.7182,4.08076h12.67181v-10.0945h2.36255q-0.03021-2.63521-.06039-5.27043h0.90787q-0.03241-2.30209-.06485-4.6042l2.07516-.06485,0.06482,4.34482h1.0376l0.06482,5.70662h1.49152l0.19455,11.41325,4.96292,0.06485q0.47717-2.86322.95438-5.72644,0.66811,2.76778,1.33618,5.53555h7.63525q0.57262-5.24922,1.14526-10.49846,0.57266,5.15378,1.14529,10.30757l6.10822,0.19089a1.81588,1.81588,0,1,1,3.62674-.19089h2.29056l0.00446-1.37166H404.425v-7.56879h2.14856q0.02444,3.73556.04886,7.47112l9.86258,0.26961q0.54565-3.60139,1.09134-7.20279l1.52783,6.548h5.89319V399.975l-1.56815.00986q-0.2541-12.93894-.50824-25.87787a0.99964,0.99964,0,1,1-.04233-1.65178q-0.04234-6.41652-.08472-12.83305l4.65887-1.48238,1.00351-2.37016,2.49261-.997v-6.31461h1.08011q-0.04152-2.40951-.08307-4.819l0.997-.08308v-5.6499a1.54256,1.54256,0,0,1,.16617-2.99115,43.08219,43.08219,0,0,0,4.15436-7.644A44.35293,44.35293,0,0,0,440.587,308.2439a1.01613,1.01613,0,1,1,.0831-1.99408q0.3739-3.4481.74777-6.89621,0.33234,3.40654.6647,6.81311a1.13093,1.13093,0,0,1,1.24631.83087,1.14869,1.14869,0,0,1-1.24631,1.16321,68.26018,68.26018,0,0,0,3.90509,20.19012c0.69818,1.94949,1.45532,3.77734,2.24332,5.48373a1.74985,1.74985,0,0,1,.24927,3.48965q0.12465,3.61427.24927,7.22855l2.16025-.58162v2.99113l-1.41248,1.32939q3.0742,5.60836,6.14844,11.21672l2.24335,0.08308v3.65582l-1.49557.0831,2.16028,3.48964h0.997v5.15138l2.908,0.0831-3.40656,2.4926q0.04156,8.05943.0831,16.11885l1.24631,0.41544-1.32941,1.41248q0.04156,2.94958.0831,5.89917l-1.08014-.16617q0.33234,22.26727.6647,44.53456h14.62329l0.16617-25.50768,1.57864,25.42458q3.11577-3.57273,6.23151-7.14546l1.74484-.08308q0.04152-2.24334.08307-4.48669l1.74484-.08308-0.16617-3.32349h2.32642q0.04156-3.7389.0831-7.47781l-1.66174-2.24335h7.47781l-2.16025,1.99409v7.39473h1.82791v2.16025q0.914,1.16322,1.82791,2.32645v1.99408l3.93347,0.151,0.3425-3.93855,1.75934-.18478q0.08409-1.21921.16815-2.43842h1.09308l0.16818-7.23117q-0.75673-1.09309-1.51349-2.18617l6.39032-.08408q-0.63062,1.009-1.26126,2.018,0.04207,3.61558.08411,7.23117h1.59756q0.042,1.13512.08408,2.27025l1.84985,1.76575,0.33633,2.10208h2.8588l-0.084-3.19516,1.34534-.08408q-0.084-2.85883-.16815-5.71767l1.34528-.92493-0.084-4.28824q-0.71475-.967-1.42944-1.93391l6.55853-.08409q-0.84082,1.009-1.6817,2.018,0.08414,1.26125.16821,2.52249h1.26123l0.084-2.35432h5.12909q-0.75677.88287-1.51349,1.76575,0.042,3.11108.08411,6.22217h1.84979q0.042,1.21921.08411,2.43842l2.018,0.08408q0.084,1.84982.16815,3.69966h3.027q-0.042-2.10207-.08411-4.20416l3.11108,0.08409v-1.84984h2.10205v-6.054q-0.7988-1.42941-1.59753-2.85883h5.80176q-0.84082,1.21921-1.6817,2.43842,0.042,2.985.08411,5.96991h2.018q-0.12616-5.045-.25226-10.09h5.38135l-1.17719,1.5135,0.084,7.23116h1.26129v2.35434h1.9339q0.042,0.967.08411,1.93391l12.74786,0.18181V417.99075h7.20471l9.206-14.80965,15.61017-.40025q0.80054-4.603,1.601-9.206,0.72354,4.68656,1.44714,9.37311l6.967-.19353,7.35406,13.16h2.51593l-0.38708-9.48293q0.87085-6.48322,1.74176-12.96643,1.06439,6.09615,2.12885,12.19232,0.19354,3.09647.387,6.19293h4.25763q2.4191-4.25764,4.83826-8.51527l40.83459-1.16118,0.19354-28.25522h-2.51593q-0.09677-4.25764-.19348-8.51527h4.06409q0.77408-6.87028,1.54822-13.74055,0.96762,5.80586,1.9353,11.61174V366.371l4.64471-.19354,2.12878-13.74054q0.87085,5.99938,1.74176,11.99878h2.12885q0.19354-6.2897.387-12.57938,0.96762,5.70911,1.9353,11.41821v2.51587h5.22528q0.87085-6.87028,1.74176-13.74055,0.87085,4.935,1.74176,9.87v3.29h5.80585q-0.09677-2.03206-.19348-4.0641l2.12878-10.45056q0.77408,5.03174,1.54822,10.06349v4.45117H711.29l2.12878-13.93408q0.77417,6.67676,1.54828,13.3535H717.483q0.09677,3.7738.19348,7.54762h-2.51587l0.38708,28.64227h6.58q1.16116-4.16087,2.32239-8.32173,2.032,4.74145,4.06409,9.48291l23.61053-.19353q1.645-3.19322,3.29-6.38646,0.38709-11.61172.77411-23.22346l2.70941,24.38464q2.903,2.9997,5.80585,5.99939,8.32178-3.7738,16.64349-7.54762l18.96582,7.74115v-9.09586h16.64349q0.38709-12.57937.77411-25.15875c-2.21393.58432-2.88477,0.329-3.09644,0-0.58166-.90414,1.43225-3.71988,4.06409-5.03175,0.465-.23181,3.74371-1.80243,6.77356-0.19353,1.98859,1.056,3.71234,3.39784,3.09644,4.45116-0.6214,1.06279-3.43073.48186-3.87061,0.38707l5.22528,45.28575L841.535,413.205l0.38708,182.11071L0.07127,595.12219Z" transform="translate(0.42877)"/></svg>