<svg id="Layer_2" data-name="Layer 2" xmlns="http://www.w3.org/2000/svg" viewBox="0 0 173.6859 238.01376"><defs><style>.cls-1,.cls-2{fill:#54575e;}.cls-1{stroke:#54575e;}.cls-1,.cls-2,.cls-3,.cls-4{stroke-miterlimit:10;}.cls-2,.cls-3{stroke:#7e8084;}.cls-3,.cls-4{fill:#fff;}.cls-4{stroke:#738084;}</style></defs><title>irene</title><path class="cls-1" d="M421.13321,412.29659a7.18056,7.18056,0,0,1-6.62445-8.08838c-0.1554.14185-2.22168,1.97409-4.421,1.35059-2.26642-.64252-3.91949-3.679-2.96085-6.97485a8.49487,8.49487,0,0,1-5.6243,0c-4.93924-1.8607-5.82672-8.39388-5.97577-9.491a14.58867,14.58867,0,0,1,.3515-5.62427c-4.58881,4.62755-10.69031,6.74739-15.46674,4.92123-5.36707-2.052-7.43613-8.46492-8.7879-12.6546a30.01018,30.01018,0,0,1-1.40607-7.73337c-2.1243,2.78661-5.3851,4.22185-8.0849,3.51517-3.85257-1.00844-6.744-6.426-4.56973-11.95157a9.44412,9.44412,0,0,1-15.46674-7.03033,2.81736,2.81736,0,0,1-3.76642-1.6142,3.40511,3.40511,0,0,1,.88046-3.47295,12.605,12.605,0,0,1-2.78815-6.45674c-0.812-7.10661,5.27087-11.9763,5.723-12.32652-4.39194-1.17282-6.924-5.28317-6.16327-8.85355a7.5566,7.5566,0,0,1,5.57629-5.42953A27.02391,27.02391,0,0,1,334.8569,301.615a23.29535,23.29535,0,0,1,1.56528-15.70163,22.1918,22.1918,0,0,1,8.16876-8.80466,12.80873,12.80873,0,0,1-6.11435-5.723,13.4741,13.4741,0,0,1-.53806-10.12537A15.31159,15.31159,0,0,1,340.531,256.271a5.73819,5.73819,0,0,1-2.9838-4.011,5.55785,5.55785,0,0,1,2.69031-5.52734,9.27736,9.27736,0,0,1-4.35339-5.33173c-1.29886-4.74191,2.2536-9.61157,5.6741-10.85907a3.52857,3.52857,0,0,1,2.93488-.09784c1.07227,0.65756.85956,2.03262,2.05444,3.61969a6.53225,6.53225,0,0,0,2.25006,1.85876l0.78262-.53806a13.272,13.272,0,0,1-2.59247-4.84256,12.7192,12.7192,0,0,1-.34241-1.56528,3.66057,3.66057,0,0,1,6.69946-1.58136c0.007-.346.22522-6.66684,4.74658-9.082a10.98608,10.98608,0,0,1,6.31-.88046,13.28369,13.28369,0,0,1,4.45126,1.32068,21.38191,21.38191,0,0,1,.83154-9.34271c0.71021-2.18835,2.1485-6.62018,6.50922-9.43381a15.22832,15.22832,0,0,1,7.725-2.30573,17.202,17.202,0,0,1,8.11984,1.6142c-0.97394-3.36917.04379-6.77359,2.43405-8.44791a5.89953,5.89953,0,0,1,9.13947,2.81213,33.67334,33.67334,0,0,1,2.81213-10.897c1.07663-2.37311,1.93869-3.47141,3.16364-4.2182a8.06334,8.06334,0,0,1,5.9758-.703q1.59856-1.25821,3.19708-2.51645" transform="translate(-333.66163 -174.78143)"/><path class="cls-1" d="M420.91077,412.29659a7.35674,7.35674,0,0,0,6.63635-9.04623,4.54439,4.54439,0,0,0,7.43442-4.66641,10.06314,10.06314,0,0,0,5.6243,0,10.10666,10.10666,0,0,0,5.62427-15.11523c0.49106,0.418,7.62613,6.30254,15.3887,3.69121,5.99451-2.01656,8.56134-7.82063,9.8248-10.67752a24.27325,24.27325,0,0,0,2.03912-9.9731c1.86377,2.21161,4.56268,3.42982,6.933,2.89183,3.51221-.7972,6.281-5.44553,4.78265-10.52924a11.31339,11.31339,0,0,0,9.78772-1.29761,11.16836,11.16836,0,0,0,4.56021-7.89691,2.79357,2.79357,0,0,0,2.89182.22244,2.58627,2.58627,0,0,0,1.11224-1.59421c0.59232-2.11761-1.36548-4.07625-1.52005-4.22653a8.86132,8.86132,0,0,0,3.07718-4.52312c1.25543-4.64854-1.94882-10.50981-8.23059-14.08839a8.30282,8.30282,0,0,0,2.40988-16.31287,22.99988,22.99988,0,0,0,5.67242-8.08231c0.80243-1.938,3.36105-8.11716.72711-15.159a20.06205,20.06205,0,0,0-10.66315-11.01572,14.81476,14.81476,0,0,0,6.41394-4.85681c1.06274-1.42319,3.44543-4.614,2.73285-8.78052a10.68688,10.68688,0,0,0-4.40121-6.67963,4.97322,4.97322,0,0,0,4.04114-3.63333c0.49786-2.41223-1.36017-5.21942-4.449-5.78366a9.08284,9.08284,0,0,0,5.56122-3.967,8.84631,8.84631,0,0,0-1.37177-10.56631,6.7502,6.7502,0,0,0-4.74557-1.965,6.87456,6.87456,0,0,0-4.18942,1.85376,8.50922,8.50922,0,0,0-2.29865,3.11426l-0.5932-.519a8.6326,8.6326,0,0,0,.70444-3.92993c-0.07153-1.16669-.2438-3.97678-2.22449-4.85678a4.48741,4.48741,0,0,0-4.52313,1.07516,9.69856,9.69856,0,0,0-8.52719-9.899,11.22965,11.22965,0,0,0-7.97107,1.92789,25.71661,25.71661,0,0,0-.70441-7.48907,18.42584,18.42584,0,0,0-4.1153-8.67551,16.91,16.91,0,0,0-7.08127-4.5231,18.15414,18.15414,0,0,0-12.30881.519,6.81074,6.81074,0,0,0-.07416-5.85782,6.26463,6.26463,0,0,0-6.11734-3.3367,6.60217,6.60217,0,0,0-4.85678,3.52209,20.76331,20.76331,0,0,0-1.81665-7.22958,11.4113,11.4113,0,0,0-3.07721-4.56018,10.41542,10.41542,0,0,0-7.56323-1.965q-1.61275-1.3347-3.22552-2.66937" transform="translate(-333.66163 -174.78143)"/><ellipse class="cls-2" cx="86.30171" cy="117.82017" rx="53.20969" ry="77.99228"/><ellipse class="cls-3" cx="86.30177" cy="117.82017" rx="44.24232" ry="64.84834"/><path class="cls-3" d="M411.66013,381.92873c0.18939,2.96651-2.1116,5.76225-3.16821,5.51266-0.84055-.19855-0.27115-2.17723-1.64746-5.32259-1.37433-3.14081-3.26251-4.18555-2.788-5.06912,0.45612-.84937,2.64117-0.70386,4.11868-0.06335A5.92247,5.92247,0,0,1,411.66013,381.92873Z" transform="translate(-333.66163 -174.78143)"/><path class="cls-3" d="M401.37488,368.466c-0.015.465-.49792,0.59615-2.19748,1.80376-1.80118,1.27982-2.12192,1.74582-2.53458,1.58411-0.56638-.222-0.591-1.34625-0.63364-3.29494-0.04218-1.92635-.06628-3.02744.50693-3.29492,0.23032-.10748.50577-0.05641,2.2811,1.07718C401.27417,367.92276,401.38235,368.23479,401.37488,368.466Z" transform="translate(-333.66163 -174.78143)"/><path class="cls-3" d="M383.273,371.09346c1.17535-1.64632,3.65421-.75038,4.182-2.02765,0.37134-.89862-0.45911-2.30162-1.52075-2.85138-1.61029-.83386-3.60388.37221-4.56219,1.394-2.08447,2.22258-1.79028,6.26-.57028,6.84331a1.39371,1.39371,0,0,0,1.14056-.12672C382.99518,373.72733,382.43045,372.27365,383.273,371.09346Z" transform="translate(-333.66163 -174.78143)"/><path class="cls-3" d="M384.09674,357.40683c-0.20929.36722-.96609,0.58775-2.47119,1.01382-1.7663.5-2.65854,0.74516-3.10483,0.50691-0.97754-.52185-1.02368-2.12868-1.07721-3.99194-0.05576-1.94125-.102-3.54929.76038-3.99193,1.30023-.66743,3.64047,1.841,3.99194,2.21774C382.474,353.45961,384.87784,356.03623,384.09674,357.40683Z" transform="translate(-333.66163 -174.78143)"/><path class="cls-3" d="M361.60251,349.10614c-0.05664.49388-.652,0.71223-2.21774,1.45737-2.25421,1.07277-2.50507,1.32681-2.97812,1.14055a2.20834,2.20834,0,0,1-1.07718-2.34447c0.14191-.761.89914-1.27806,2.40784-2.28111,1.3587-.90334,2.33136-1.537,2.788-1.2039,0.36819,0.26855-.00955.86612,0.44354,1.96428C361.29282,348.624,361.64783,348.711,361.60251,349.10614Z" transform="translate(-333.66163 -174.78143)"/><path class="cls-3" d="M354.82254,332.69486c0.02216,0.65463-.46109.87744-1.83755,2.40781-1.53168,1.70294-1.73981,2.32373-2.34445,2.28113a1.866,1.866,0,0,1-1.394-1.71085c-0.0307-.41949.1048-0.7869,1.71082-2.66129,1.62668-1.89847,1.93649-2.04535,2.28113-2.02765A1.89141,1.89141,0,0,1,354.82254,332.69486Z" transform="translate(-333.66163 -174.78143)"/><path class="cls-3" d="M359.57486,308.10959c0.29346,1.70746,1.01291,2.41022.697,2.72464-0.63721.63419-4.93542-.85965-5.13248-3.67511-0.20258-2.89447,4.0878-4.923,4.87524-4.31381C360.60422,303.30142,359.0582,305.10349,359.57486,308.10959Z" transform="translate(-333.66163 -174.78143)"/><path class="cls-3" d="M354.31564,297.14761c-0.234.56186-1.55151,3.72479-4.43549,3.92856-3.09158.21841-4.85584-3.18469-5.00577-3.485-0.7377-1.47766-1.08081-3.658-.3168-4.11868,0.99823-.602,2.69293,2.45132,5.06912,2.15439,2.56168-.3201,3.45468-4.22641,4.49884-3.92856C354.98029,291.94211,355.28616,294.81766,354.31564,297.14761Z" transform="translate(-333.66163 -174.78143)"/><path class="cls-3" d="M359.13132,282.57385c-0.15875,1.98492-.39032,2.20374-0.57028,2.28113-0.52222.22461-1.27771-.454-1.90091-1.01382-0.66855-.60056-1.17654-1.05685-1.14056-1.64746,0.00983-.16144.07016-0.4949,1.33066-1.52075,1.16867-.95111,1.753-1.42667,2.091-1.26727C359.36856,279.60718,359.28949,280.59607,359.13132,282.57385Z" transform="translate(-333.66163 -174.78143)"/><path class="cls-3" d="M358.561,267.04968c-0.25052,2.98752-2.32117,5.58237-3.92856,5.95621a0.70622,0.70622,0,0,1-.44357,0c-1.03394-.40591.27228-3.57971-0.57025-6.52649-1.013-3.543-4.4426-4.34613-3.99194-5.70276,0.39624-1.19284,3.43662-1.74261,5.6394-.697C358.01163,261.38284,358.74731,264.82816,358.561,267.04968Z" transform="translate(-333.66163 -174.78143)"/><path class="cls-3" d="M371.93085,237.90219a6.1585,6.1585,0,0,1-6.65323,3.295c-4.14465-1.05536-5.19266-7.25415-3.99194-8.23734,0.8656-.70877,2.55338,1.57657,5.8295,1.26727,2.59692-.24518,3.67621-1.88318,4.689-1.26727C372.88251,233.61563,372.7955,236.164,371.93085,237.90219Z" transform="translate(-333.66163 -174.78143)"/><path class="cls-3" d="M382.89282,230.86878c0.05856,0.28473-.03336.65015-1.77417,2.34448-1.48615,1.44647-2.23788,2.16684-2.66132,2.02765-0.7515-.247-0.78857-1.97363-0.82373-3.61176-0.03293-1.53391-.06415-2.98877.63367-3.29492,0.35114-.15405.61365,0.10257,2.40781,1.07718C382.4454,230.37308,382.80862,230.45938,382.89282,230.86878Z" transform="translate(-333.66163 -174.78143)"/><path class="cls-3" d="M389.86288,216.48514c0.10339,2.832-2.61542,5.63919-4.81567,5.44931a2.68866,2.68866,0,0,1-1.96429-1.14053c-0.67816-1.21658.5773-2.34079,0.95047-4.87906,0.42178-2.86893-.77161-4.2244-0.12674-4.68893C384.95023,210.47418,389.72952,212.83249,389.86288,216.48514Z" transform="translate(-333.66163 -174.78143)"/><path class="cls-3" d="M400.76151,219.14642c-0.07224.55573-.95639,0.983-2.72467,1.83759-1.87827.90771-3.07513,1.48611-3.61172,1.01382-0.2121-.18668-0.25522-0.47961.06335-2.72467,0.40009-2.81946.55905-2.99863,0.697-3.10483C396.58679,215.08948,400.96518,217.57947,400.76151,219.14642Z" transform="translate(-333.66163 -174.78143)"/><path class="cls-3" d="M413.5585,197.5744c-0.407,2.47852-.122,3.33716-0.8212,3.76672a2.51366,2.51366,0,0,1-2.97812-.88708c-0.70822-1.0437.19553-1.9209,0.76038-5.6394,0.28809-1.89648.32785-3.47769,0.82373-3.5484,0.33057-.04712.4805,0.63165,1.394,1.07721,0.75262,0.36707,1.05829.10507,1.394,0.38019C414.81445,193.28342,414.02148,194.75537,413.5585,197.5744Z" transform="translate(-333.66163 -174.78143)"/><path class="cls-3" d="M428.07141,197.72937c0.17694,2.84714.43439,3.46939-.12674,4.11868a2.63311,2.63311,0,0,1-3.29492.44354c-0.73291-.62936-0.14639-1.55823-0.3168-4.49884-0.14536-2.50806-.651-3.19565-0.06338-3.99194a2.592,2.592,0,0,1,3.16821-.697C428.12076,193.578,427.86169,194.35471,428.07141,197.72937Z" transform="translate(-333.66163 -174.78143)"/><path class="cls-3" d="M444.67279,217.37225c0.15118,2.33636.41971,2.99274,0,3.29492-0.5083.366-1.45947-.1954-3.16818-1.20392-1.83957-1.08572-2.75937-1.6286-2.72382-2.33093,0.01938-.3829.31021-0.59833,2.66043-2.0412,2.15146-1.32086,2.481-1.49228,2.788-1.33063C444.72708,214.02261,444.50723,214.81384,444.67279,217.37225Z" transform="translate(-333.66163 -174.78143)"/><path class="cls-3" d="M453.35367,214.71094c0.19781,1.41714,1.00018,2.47168.57028,4.24539a1.21506,1.21506,0,0,1-.5069.95047c-0.86212.27753-3.09558-2.2699-3.30762-5.1257-0.01712-.23062-0.20334-3.38876,2.04031-5.01254,0.80505-.58264,2.19369-1.1637,2.66129-0.697C455.522,209.78116,452.94067,211.752,453.35367,214.71094Z" transform="translate(-333.66163 -174.78143)"/><path class="cls-3" d="M461.84445,230.86878c0.02133,1.95929.03342,3.07-.5069,3.295-0.81812.34061-2.301-1.59994-2.72467-2.15439-1.003-1.31256-1.91959-2.512-1.45737-3.54837,0.578-1.29587,3.05472-1.76038,4.11865-.82376C461.80365,228.10333,461.82446,229.0315,461.84445,230.86878Z" transform="translate(-333.66163 -174.78143)"/><path class="cls-3" d="M476.35483,233.34c0.7742,0.65958.32532,2.67776-.57028,3.92856a4.59067,4.59067,0,0,1-3.80185,1.90094c-2.19757-.18552-3.28567-2.24207-3.67511-2.97812-0.78415-1.48206-1.17789-3.66275-.44354-4.11868,0.76779-.47672,1.83212,1.51358,4.30875,1.7742C474.40466,234.08176,475.5802,232.68009,476.35483,233.34Z" transform="translate(-333.66163 -174.78143)"/><path class="cls-3" d="M487,264.26166c-1.16815,3.95047-.58728,6.06274-1.26727,6.20966-1.07272.23178-4.52325-4.59207-2.91476-8.4274,1.32883-3.16849,5.6452-4.5531,6.39978-3.73849C489.76627,258.89758,488.15579,260.353,487,264.26166Z" transform="translate(-333.66163 -174.78143)"/><path class="cls-3" d="M486.17627,280.35611c-0.00284.193-.07452,0.51419-1.96429,1.90094-1.3111.96213-1.97421,1.44092-2.34448,1.33063-0.91681-.2731-1.0629-2.21585-1.19208-3.934-0.11832-1.57364-.21133-2.81076.36835-3.09937,0.26419-.13153.575-0.01968,3.10486,1.83755C485.87381,279.65839,486.18237,279.939,486.17627,280.35611Z" transform="translate(-333.66163 -174.78143)"/><path class="cls-3" d="M494.477,294.42294c0.36652,0.99316-2.58884,4.06653-4.81567,3.35831-2.56158-.81467-2.59875-6.137-1.71082-6.52652,0.49359-.21655,1.02576,1.19955,3.10483,2.15439C493.01715,294.31012,494.26114,293.83811,494.477,294.42294Z" transform="translate(-333.66163 -174.78143)"/><path class="cls-3" d="M485.47925,306.01856a3.1611,3.1611,0,0,1-1.14053,1.58411c-0.55453.554-1.825,1.823-2.34448,1.52075-0.25317-.14731-0.20074-0.59384.31683-3.61176,0.367-2.14017.43-2.43655,0.697-2.53458C483.8197,302.67911,485.74155,304.499,485.47925,306.01856Z" transform="translate(-333.66163 -174.78143)"/><path class="cls-3" d="M493.273,334.08884a2.45742,2.45742,0,0,1-1.83756,2.21774c-0.77734.09744-1.136-.54584-3.10486-2.34445-2.29086-2.0928-3.3028-2.59-3.16818-3.42166,0.05786-.35757.25635-0.33633,1.45737-1.71085,0.99442-1.13809,1.02707-1.34573,1.33066-1.394,0.7218-.11481,1.19189.95486,2.85138,3.0415C492.61,332.75061,493.33414,333.09311,493.273,334.08884Z" transform="translate(-333.66163 -174.78143)"/><path class="cls-3" d="M484.84561,346.76166c0.38339,0.94209.20346,2.29056-.5069,2.6613-0.43918.22922-1.14362-.13977-2.53458-0.8871-2.64142-1.41917-2.7182-2.031-2.72464-2.21774a8.77089,8.77089,0,0,1,.44354-1.26729c0.25006-1.00533.00107-1.39514,0.25345-1.58409,0.26178-.196.76205,0.04947,2.788,1.394C484.42114,346.09291,484.67032,346.331,484.84561,346.76166Z" transform="translate(-333.66163 -174.78143)"/><path class="cls-3" d="M462.09793,357.85037c-1.15683.909-3.60495,0.29453-4.11868-1.01382-0.38889-.99045.45807-2.05435,1.64746-3.54839,0.73209-.91959,2.06577-2.59489,2.85138-2.28111,0.80975,0.32343.58826,2.58083,0.44357,4.05531C462.76993,356.60878,462.68213,357.39136,462.09793,357.85037Z" transform="translate(-333.66163 -174.78143)"/><path class="cls-3" d="M462.16129,368.5589c1.84708,4.34628-2.67572,9.54224-3.5484,9.25116-0.61255-.20432.8172-3.03067-0.38019-6.78-1.3269-4.15488-4.68146-5.69-4.24539-6.39978C454.52225,363.75963,460.47659,364.59473,462.16129,368.5589Z" transform="translate(-333.66163 -174.78143)"/><path class="cls-4" d="M443.40552,371.85384c-1.87781.44391-4.10205-1.57158-3.99194-3.10484,0.14835-2.06606,4.562-3.631,5.8295-2.40784C446.36356,367.4225,445.68115,371.31589,443.40552,371.85384Z" transform="translate(-333.66163 -174.78143)"/><path class="cls-3" d="M434.091,381.86536c-1.11926,3.89766.0824,6.50294-.57028,6.71658-0.9426.30853-5.14709-4.56915-3.5484-8.61751,1.34586-3.40807,6.19153-4.67636,6.84332-3.8652C437.30792,376.71187,435.14743,378.18648,434.091,381.86536Z" transform="translate(-333.66163 -174.78143)"/><path d="M414.10176,248.17455a20.2615,20.2615,0,0,1,14.25087,1.54023c2.07822,1.05086,10.34989,5.23344,12.51053,13.7195a97.8216,97.8216,0,0,1,1.38121,9.92845l0.00073,0.00864c0.09785,1.18724-.81577,1.89481-1.06852,2.60738-0.28258.79666,0.30971,1.58031,1.1374,2.95374,1.56927,2.60393,3.748,3.17326,3.59259,4.61059a3.64563,3.64563,0,0,1-1.64885,2.36914A2.251,2.251,0,0,0,443.117,287.019a1.7016,1.7016,0,0,0-.07838.28154,3.90157,3.90157,0,0,0,.4208,2.29565c0.55776,1.1466,1.0179,1.21082,1.01994,1.79094a1.92733,1.92733,0,0,1-.86726,1.38508,1.31947,1.31947,0,0,1,.52062.33507,1.64808,1.64808,0,0,1,.0369,2.09855c-0.277.26042-.54952,0.26541-1.0294,0.66788a0.96938,0.96938,0,0,0-.23992.314,2.83888,2.83888,0,0,0-.07851,1.86623c0.74616,2.67978,1.2795,3.31622,1.08133,4.18708a3.237,3.237,0,0,1-1.87538,1.89317c-2.519,1.1012-4.50185-1.52154-7.48082-.51992a5.5004,5.5004,0,0,0-2.28446,1.51985c-1.14272,1.2414-2.5905,3.81913-2.06177,5.82427,0.63083,2.39234,3.66712,2.7166,6.56283,4.34641,2.70636,1.52325,6.11318,4.61474,8.5381,11.62224a95.56147,95.56147,0,0,0-15.80586-.41045c-7.69626.43647-10.78757,1.54542-17.09548,1.69914a61.3534,61.3534,0,0,1-18.22861-2.38253c1.31164-6.282,3.81883-8.89619,5.94338-10.105,2.9298-1.667,6.33393-1.34531,9.26838-4.60128a11.13693,11.13693,0,0,0,1.927-2.9922c0.38031-.8516,2.3761-5.53445.8224-8.35285-0.7088-1.28572-2.15176-2.17526-3.31989-1.859-1.263.34192-1.31089,1.85158-2.43823,2.77657-1.989,1.63193-5.568-.00828-7.7318-2.55175-2.58671-3.04057-4.11562-8.50588-2.72495-10.8026a4.2979,4.2979,0,0,1,3.25679-1.78279c1.23013-.0819,1.75524.46949,2.09653,0.0901,0.84811-.94268-1.50179-5.33889-2.52417-9.17717-1.985-7.45218.01782-16.61708,3.934-21.93923C406.07082,249.92936,410.30342,249.00452,414.10176,248.17455Z" transform="translate(-333.66163 -174.78143)"/></svg>